TITLE "136.100, flac"
FILE "136.100.flac" WAVE

TRACK 01 AUDIO
TITLE "2020.02.06-05:59.01:551117"
INDEX 01 00:01:16

TRACK 02 AUDIO
TITLE "2020.02.06-05:59.36:995128"
INDEX 00 00:10:27
INDEX 01 00:36:50

TRACK 03 AUDIO
TITLE "2020.02.06-06:00.47:951326"
INDEX 00 00:45:00
INDEX 01 01:47:46

TRACK 04 AUDIO
TITLE "2020.02.06-06:00.58:851045"
INDEX 00 01:56:51
INDEX 01 01:58:39

TRACK 05 AUDIO
TITLE "2020.02.06-06:01.18:271577"
INDEX 00 02:17:42
INDEX 01 02:17:70

TRACK 06 AUDIO
TITLE "2020.02.06-06:02.24:631401"
INDEX 00 02:34:54
INDEX 01 03:24:22

TRACK 07 AUDIO
TITLE "2020.02.06-06:02.53:191304"
INDEX 00 03:33:22
INDEX 01 03:52:64

TRACK 08 AUDIO
TITLE "2020.02.06-06:03.34:695050"
INDEX 00 04:03:24
INDEX 01 04:34:27

TRACK 09 AUDIO
TITLE "2020.02.06-06:04.28:411279"
INDEX 00 04:43:30
INDEX 01 05:28:06

TRACK 10 AUDIO
TITLE "2020.02.06-06:04.43:271632"
INDEX 00 05:37:30
INDEX 01 05:42:70

TRACK 11 AUDIO
TITLE "2020.02.06-06:07.38:791081"
INDEX 00 05:52:66
INDEX 01 08:38:34

TRACK 12 AUDIO
TITLE "2020.02.06-06:07.51:991199"
INDEX 00 08:51:21
INDEX 01 08:51:49

TRACK 13 AUDIO
TITLE "2020.02.06-06:07.57:771123"
INDEX 00 08:57:07
INDEX 01 08:57:33

TRACK 14 AUDIO
TITLE "2020.02.06-06:08.39:474069"
INDEX 00 09:10:45
INDEX 01 09:39:11

TRACK 15 AUDIO
TITLE "2020.02.06-06:08.56:991121"
INDEX 00 09:46:39
INDEX 01 09:56:49

TRACK 16 AUDIO
TITLE "2020.02.06-06:08.59:091122"
INDEX 00 09:58:52
INDEX 01 09:58:57

TRACK 17 AUDIO
TITLE "2020.02.06-06:09.08:013843"
INDEX 00 10:07:06
INDEX 01 10:07:51

TRACK 18 AUDIO
TITLE "2020.02.06-06:09.14:931274"
INDEX 00 10:13:71
INDEX 01 10:14:45

TRACK 19 AUDIO
TITLE "2020.02.06-06:09.22:591258"
INDEX 00 10:21:39
INDEX 01 10:22:19

TRACK 20 AUDIO
TITLE "2020.02.06-06:09.30:251461"
INDEX 00 10:28:72
INDEX 01 10:29:69

TRACK 21 AUDIO
TITLE "2020.02.06-06:09.45:831412"
INDEX 00 10:40:16
INDEX 01 10:45:37

TRACK 22 AUDIO
TITLE "2020.02.06-06:09.51:071407"
INDEX 00 10:50:43
INDEX 01 10:50:55

TRACK 23 AUDIO
TITLE "2020.02.06-06:10.09:351227"
INDEX 00 11:06:07
INDEX 01 11:09:01

TRACK 24 AUDIO
TITLE "2020.02.06-06:10.30:551206"
INDEX 00 11:29:13
INDEX 01 11:30:16

TRACK 25 AUDIO
TITLE "2020.02.06-06:10.44:571255"
INDEX 00 11:42:67
INDEX 01 11:44:18

TRACK 26 AUDIO
TITLE "2020.02.06-06:10.58:255430"
INDEX 00 11:55:63
INDEX 01 11:57:69

TRACK 27 AUDIO
TITLE "2020.02.06-06:11.26:054969"
INDEX 00 12:08:74
INDEX 01 12:25:54

TRACK 28 AUDIO
TITLE "2020.02.06-06:11.32:071163"
INDEX 00 12:30:62
INDEX 01 12:31:55

TRACK 29 AUDIO
TITLE "2020.02.06-06:11.43:812617"
INDEX 00 12:37:30
INDEX 01 12:43:36

TRACK 30 AUDIO
TITLE "2020.02.06-06:11.54:711252"
INDEX 00 12:53:08
INDEX 01 12:54:28

TRACK 31 AUDIO
TITLE "2020.02.06-06:12.19:011277"
INDEX 00 13:15:55
INDEX 01 13:18:51

TRACK 32 AUDIO
TITLE "2020.02.06-06:12.32:051628"
INDEX 00 13:29:60
INDEX 01 13:31:54

TRACK 33 AUDIO
TITLE "2020.02.06-06:12.42:251806"
INDEX 00 13:39:30
INDEX 01 13:41:69

TRACK 34 AUDIO
TITLE "2020.02.06-06:12.47:751432"
INDEX 00 13:47:22
INDEX 01 13:47:31

TRACK 35 AUDIO
TITLE "2020.02.06-06:13.03:071641"
INDEX 00 13:52:69
INDEX 01 14:02:55

TRACK 36 AUDIO
TITLE "2020.02.06-06:13.09:111079"
INDEX 00 14:08:46
INDEX 01 14:08:58

TRACK 37 AUDIO
TITLE "2020.02.06-06:13.16:011119"
INDEX 00 14:13:70
INDEX 01 14:15:51

TRACK 38 AUDIO
TITLE "2020.02.06-06:13.25:251130"
INDEX 00 14:23:49
INDEX 01 14:24:69

TRACK 39 AUDIO
TITLE "2020.02.06-06:13.36:891041"
INDEX 00 14:36:13
INDEX 01 14:36:42

TRACK 40 AUDIO
TITLE "2020.02.06-06:13.42:411167"
INDEX 00 14:40:72
INDEX 01 14:42:06

TRACK 41 AUDIO
TITLE "2020.02.06-06:13.52:211298"
INDEX 00 14:51:51
INDEX 01 14:51:66

TRACK 42 AUDIO
TITLE "2020.02.06-06:14.03:111195"
INDEX 00 15:00:19
INDEX 01 15:02:58

TRACK 43 AUDIO
TITLE "2020.02.06-06:14.26:411153"
INDEX 00 15:16:69
INDEX 01 15:26:06

TRACK 44 AUDIO
TITLE "2020.02.06-06:14.52:911298"
INDEX 00 15:50:43
INDEX 01 15:52:43

TRACK 45 AUDIO
TITLE "2020.02.06-06:15.12:913173"
INDEX 00 16:10:52
INDEX 01 16:12:44

TRACK 46 AUDIO
TITLE "2020.02.06-06:16.00:553002"
INDEX 00 16:21:56
INDEX 01 17:00:17

TRACK 47 AUDIO
TITLE "2020.02.06-06:16.22:291247"
INDEX 00 17:17:29
INDEX 01 17:21:72

TRACK 48 AUDIO
TITLE "2020.02.06-06:16.28:774990"
INDEX 00 17:26:54
INDEX 01 17:28:33

TRACK 49 AUDIO
TITLE "2020.02.06-06:17.54:111214"
INDEX 00 17:41:71
INDEX 01 18:53:58

TRACK 50 AUDIO
TITLE "2020.02.06-06:19.31:891222"
INDEX 00 19:13:67
INDEX 01 20:31:42

TRACK 51 AUDIO
TITLE "2020.02.06-06:20.25:951178"
INDEX 00 20:40:27
INDEX 01 21:25:46

TRACK 52 AUDIO
TITLE "2020.02.06-06:20.37:331414"
INDEX 00 21:36:34
INDEX 01 21:37:00

TRACK 53 AUDIO
TITLE "2020.02.06-06:21.39:091221"
INDEX 00 21:45:60
INDEX 01 22:38:57

TRACK 54 AUDIO
TITLE "2020.02.06-06:21.42:771116"
INDEX 00 22:40:19
INDEX 01 22:42:33

TRACK 55 AUDIO
TITLE "2020.02.06-06:22.08:271181"
INDEX 00 23:05:33
INDEX 01 23:07:70

TRACK 56 AUDIO
TITLE "2020.02.06-06:22.20:331170"
INDEX 00 23:19:04
INDEX 01 23:20:00

TRACK 57 AUDIO
TITLE "2020.02.06-06:22.33:032980"
INDEX 00 23:30:69
INDEX 01 23:32:53

TRACK 58 AUDIO
TITLE "2020.02.06-06:22.43:174230"
INDEX 00 23:40:51
INDEX 01 23:42:63

TRACK 59 AUDIO
TITLE "2020.02.06-06:22.54:875855"
INDEX 00 23:51:38
INDEX 01 23:54:41

TRACK 60 AUDIO
TITLE "2020.02.06-06:23.23:571232"
INDEX 00 24:22:14
INDEX 01 24:23:18

TRACK 61 AUDIO
TITLE "2020.02.06-06:23.45:011470"
INDEX 00 24:40:28
INDEX 01 24:44:51

TRACK 62 AUDIO
TITLE "2020.02.06-06:23.57:753341"
INDEX 00 24:56:22
INDEX 01 24:57:32

TRACK 63 AUDIO
TITLE "2020.02.06-06:25.14:335047"
INDEX 00 25:05:54
INDEX 01 26:14:00

TRACK 64 AUDIO
TITLE "2020.02.06-06:25.18:991331"
INDEX 00 26:18:23
INDEX 01 26:18:49

TRACK 65 AUDIO
TITLE "2020.02.06-06:26.31:375314"
INDEX 00 26:23:51
INDEX 01 27:31:03

TRACK 66 AUDIO
TITLE "2020.02.06-06:26.48:451183"
INDEX 00 27:47:66
INDEX 01 27:48:09

TRACK 67 AUDIO
TITLE "2020.02.06-06:26.59:711279"
INDEX 00 27:59:22
INDEX 01 27:59:28

TRACK 68 AUDIO
TITLE "2020.02.06-06:27.04:655499"
INDEX 00 28:02:58
INDEX 01 28:04:24

TRACK 69 AUDIO
TITLE "2020.02.06-06:27.18:875266"
INDEX 00 28:18:35
INDEX 01 28:18:41

TRACK 70 AUDIO
TITLE "2020.02.06-06:27.27:632401"
INDEX 00 28:25:03
INDEX 01 28:27:22

TRACK 71 AUDIO
TITLE "2020.02.06-06:27.36:355921"
INDEX 00 28:34:30
INDEX 01 28:36:02

TRACK 72 AUDIO
TITLE "2020.02.06-06:27.51:934082"
INDEX 00 28:50:57
INDEX 01 28:51:45

TRACK 73 AUDIO
TITLE "2020.02.06-06:28.02:675800"
INDEX 00 29:00:06
INDEX 01 29:02:26

TRACK 74 AUDIO
TITLE "2020.02.06-06:28.09:996053"
INDEX 00 29:08:59
INDEX 01 29:09:50

TRACK 75 AUDIO
TITLE "2020.02.06-06:28.23:171401"
INDEX 00 29:22:53
INDEX 01 29:22:63

TRACK 76 AUDIO
TITLE "2020.02.06-06:28.26:871490"
INDEX 00 29:26:15
INDEX 01 29:26:40

TRACK 77 AUDIO
TITLE "2020.02.06-06:28.32:371718"
INDEX 00 29:31:22
INDEX 01 29:32:03

TRACK 78 AUDIO
TITLE "2020.02.06-06:28.43:411429"
INDEX 00 29:42:31
INDEX 01 29:43:06

TRACK 79 AUDIO
TITLE "2020.02.06-06:29.12:736487"
INDEX 00 29:48:63
INDEX 01 30:12:30

TRACK 80 AUDIO
TITLE "2020.02.06-06:29.26:955080"
INDEX 00 30:20:03
INDEX 01 30:26:47

TRACK 81 AUDIO
TITLE "2020.02.06-06:29.41:511282"
INDEX 00 30:35:36
INDEX 01 30:41:13

TRACK 82 AUDIO
TITLE "2020.02.06-06:29.51:151119"
INDEX 00 30:47:27
INDEX 01 30:50:61

TRACK 83 AUDIO
TITLE "2020.02.06-06:30.10:755138"
INDEX 00 31:06:30
INDEX 01 31:10:32

TRACK 84 AUDIO
TITLE "2020.02.06-06:30.26:671276"
INDEX 00 31:15:68
INDEX 01 31:26:25

TRACK 85 AUDIO
TITLE "2020.02.06-06:30.40:251254"
INDEX 00 31:36:73
INDEX 01 31:39:69

TRACK 86 AUDIO
TITLE "2020.02.06-06:30.52:411439"
INDEX 00 31:49:04
INDEX 01 31:52:06

TRACK 87 AUDIO
TITLE "2020.02.06-06:31.03:551284"
INDEX 00 32:03:06
INDEX 01 32:03:16

TRACK 88 AUDIO
TITLE "2020.02.06-06:31.14:651089"
INDEX 00 32:07:16
INDEX 01 32:14:24

TRACK 89 AUDIO
TITLE "2020.02.06-06:31.32:875998"
INDEX 00 32:24:21
INDEX 01 32:32:41

TRACK 90 AUDIO
TITLE "2020.02.06-06:31.36:755184"
INDEX 00 32:35:66
INDEX 01 32:36:32

TRACK 91 AUDIO
TITLE "2020.02.06-06:31.40:871222"
INDEX 00 32:39:29
INDEX 01 32:40:40

TRACK 92 AUDIO
TITLE "2020.02.06-06:31.46:271231"
INDEX 00 32:45:55
INDEX 01 32:45:70

TRACK 93 AUDIO
TITLE "2020.02.06-06:32.11:671261"
INDEX 00 32:50:72
INDEX 01 33:11:25

TRACK 94 AUDIO
TITLE "2020.02.06-06:32.58:891073"
INDEX 00 33:22:30
INDEX 01 33:58:42

TRACK 95 AUDIO
TITLE "2020.02.06-06:33.17:313222"
INDEX 00 34:07:01
INDEX 01 34:16:74

TRACK 96 AUDIO
TITLE "2020.02.06-06:33.26:471318"
INDEX 00 34:25:66
INDEX 01 34:26:10

TRACK 97 AUDIO
TITLE "2020.02.06-06:34.06:011085"
INDEX 00 34:32:28
INDEX 01 35:05:51

TRACK 98 AUDIO
TITLE "2020.02.06-06:34.22:397404"
INDEX 00 35:14:43
INDEX 01 35:22:05

TRACK 99 AUDIO
TITLE "2020.02.06-06:34.39:192410"
INDEX 00 35:30:24
INDEX 01 35:38:64

TRACK 100 AUDIO
TITLE "2020.02.06-06:34.43:091127"
INDEX 00 35:41:25
INDEX 01 35:42:57

TRACK 101 AUDIO
TITLE "2020.02.06-06:34.53:391291"
INDEX 00 35:51:37
INDEX 01 35:53:04

TRACK 102 AUDIO
TITLE "2020.02.06-06:34.58:371172"
INDEX 00 35:56:07
INDEX 01 35:58:03

TRACK 103 AUDIO
TITLE "2020.02.06-06:35.13:891290"
INDEX 00 36:06:36
INDEX 01 36:13:42

TRACK 104 AUDIO
TITLE "2020.02.06-06:36.17:376699"
INDEX 00 36:22:66
INDEX 01 37:17:03

TRACK 105 AUDIO
TITLE "2020.02.06-06:36.43:411186"
INDEX 00 37:18:18
INDEX 01 37:43:06

TRACK 106 AUDIO
TITLE "2020.02.06-06:38.06:151370"
INDEX 00 37:52:69
INDEX 01 39:05:61

TRACK 107 AUDIO
TITLE "2020.02.06-06:38.35:031317"
INDEX 00 39:20:33
INDEX 01 39:34:52

TRACK 108 AUDIO
TITLE "2020.02.06-06:38.48:531164"
INDEX 00 39:46:27
INDEX 01 39:48:15

TRACK 109 AUDIO
TITLE "2020.02.06-06:39.14:171257"
INDEX 00 39:54:40
INDEX 01 40:13:63

TRACK 110 AUDIO
TITLE "2020.02.06-06:39.51:031110"
INDEX 00 40:22:04
INDEX 01 40:50:52

TRACK 111 AUDIO
TITLE "2020.02.06-06:40.10:451082"
INDEX 00 40:52:13
INDEX 01 41:10:09

TRACK 112 AUDIO
TITLE "2020.02.06-06:40.16:431472"
INDEX 00 41:14:66
INDEX 01 41:16:07

TRACK 113 AUDIO
TITLE "2020.02.06-06:40.21:371179"
INDEX 00 41:20:39
INDEX 01 41:21:03

TRACK 114 AUDIO
TITLE "2020.02.06-06:40.43:671324"
INDEX 00 41:31:54
INDEX 01 41:43:25

TRACK 115 AUDIO
TITLE "2020.02.06-06:41.01:871210"
INDEX 00 41:59:18
INDEX 01 42:01:40

TRACK 116 AUDIO
TITLE "2020.02.06-06:41.23:912689"
INDEX 00 42:23:30
INDEX 01 42:23:44

TRACK 117 AUDIO
TITLE "2020.02.06-06:41.32:592827"
INDEX 00 42:31:20
INDEX 01 42:32:20

TRACK 118 AUDIO
TITLE "2020.02.06-06:42.53:516111"
INDEX 00 42:46:05
INDEX 01 43:53:14

TRACK 119 AUDIO
TITLE "2020.02.06-06:43.03:971226"
INDEX 00 44:02:69
INDEX 01 44:03:48

TRACK 120 AUDIO
TITLE "2020.02.06-06:43.16:371247"
INDEX 00 44:15:46
INDEX 01 44:16:03

TRACK 121 AUDIO
TITLE "2020.02.06-06:43.29:451241"
INDEX 00 44:25:39
INDEX 01 44:29:09

TRACK 122 AUDIO
TITLE "2020.02.06-06:43.43:531259"
INDEX 00 44:36:61
INDEX 01 44:43:15

TRACK 123 AUDIO
TITLE "2020.02.06-06:43.45:571322"
INDEX 00 44:44:73
INDEX 01 44:45:18

TRACK 124 AUDIO
TITLE "2020.02.06-06:43.56:271170"
INDEX 00 44:48:52
INDEX 01 44:55:70

TRACK 125 AUDIO
TITLE "2020.02.06-06:44.01:571629"
INDEX 00 44:59:01
INDEX 01 45:01:18

TRACK 126 AUDIO
TITLE "2020.02.06-06:44.13:811282"
INDEX 00 45:12:45
INDEX 01 45:13:36

TRACK 127 AUDIO
TITLE "2020.02.06-06:44.32:111284"
INDEX 00 45:28:36
INDEX 01 45:31:58

TRACK 128 AUDIO
TITLE "2020.02.06-06:44.41:271161"
INDEX 00 45:38:60
INDEX 01 45:40:70

TRACK 129 AUDIO
TITLE "2020.02.06-06:45.00:675350"
INDEX 00 45:53:06
INDEX 01 46:00:26

TRACK 130 AUDIO
TITLE "2020.02.06-06:47.03:771148"
INDEX 00 46:10:11
INDEX 01 48:03:33

TRACK 131 AUDIO
TITLE "2020.02.06-06:47.08:291200"
INDEX 00 48:06:52
INDEX 01 48:07:72

TRACK 132 AUDIO
TITLE "2020.02.06-06:47.20:036551"
INDEX 00 48:18:19
INDEX 01 48:19:53

TRACK 133 AUDIO
TITLE "2020.02.06-06:47.27:211135"
INDEX 00 48:23:62
INDEX 01 48:26:66

TRACK 134 AUDIO
TITLE "2020.02.06-06:47.44:811101"
INDEX 00 48:43:43
INDEX 01 48:44:36

TRACK 135 AUDIO
TITLE "2020.02.06-06:47.49:451248"
INDEX 00 48:47:18
INDEX 01 48:49:09

TRACK 136 AUDIO
TITLE "2020.02.06-06:48.02:391260"
INDEX 00 49:02:00
INDEX 01 49:02:04

TRACK 137 AUDIO
TITLE "2020.02.06-06:48.21:752061"
INDEX 00 49:06:60
INDEX 01 49:21:31

TRACK 138 AUDIO
TITLE "2020.02.06-06:48.42:251246"
INDEX 00 49:22:60
INDEX 01 49:41:69

TRACK 139 AUDIO
TITLE "2020.02.06-06:48.46:571373"
INDEX 00 49:45:33
INDEX 01 49:46:18

TRACK 140 AUDIO
TITLE "2020.02.06-06:48.54:611088"
INDEX 00 49:49:45
INDEX 01 49:54:21

TRACK 141 AUDIO
TITLE "2020.02.06-06:49.00:671099"
INDEX 00 49:59:01
INDEX 01 50:00:25

TRACK 142 AUDIO
TITLE "2020.02.06-06:49.11:638149"
INDEX 00 50:08:63
INDEX 01 50:11:23

TRACK 143 AUDIO
TITLE "2020.02.06-06:49.16:671326"
INDEX 00 50:16:12
INDEX 01 50:16:25

TRACK 144 AUDIO
TITLE "2020.02.06-06:49.23:995322"
INDEX 00 50:22:15
INDEX 01 50:23:50

TRACK 145 AUDIO
TITLE "2020.02.06-06:49.39:071729"
INDEX 00 50:37:11
INDEX 01 50:38:55

TRACK 146 AUDIO
TITLE "2020.02.06-06:49.45:771083"
INDEX 00 50:44:69
INDEX 01 50:45:33

TRACK 147 AUDIO
TITLE "2020.02.06-06:49.52:191251"
INDEX 00 50:51:07
INDEX 01 50:51:64

TRACK 148 AUDIO
TITLE "2020.02.06-06:49.58:391268"
INDEX 00 50:57:30
INDEX 01 50:58:04

TRACK 149 AUDIO
TITLE "2020.02.06-06:50.15:555820"
INDEX 00 51:14:63
INDEX 01 51:15:17

TRACK 150 AUDIO
TITLE "2020.02.06-06:50.29:271212"
INDEX 00 51:28:51
INDEX 01 51:28:70

TRACK 151 AUDIO
TITLE "2020.02.06-06:50.35:671132"
INDEX 00 51:34:54
INDEX 01 51:35:25

TRACK 152 AUDIO
TITLE "2020.02.06-06:51.11:491256"
INDEX 00 51:55:22
INDEX 01 52:11:12

TRACK 153 AUDIO
TITLE "2020.02.06-06:51.24:411241"
INDEX 00 52:20:13
INDEX 01 52:24:06

TRACK 154 AUDIO
TITLE "2020.02.06-06:51.44:411220"
INDEX 00 52:33:19
INDEX 01 52:44:06

TRACK 155 AUDIO
TITLE "2020.02.06-06:51.55:951135"
INDEX 00 52:54:70
INDEX 01 52:55:46

TRACK 156 AUDIO
TITLE "2020.02.06-06:52.11:091334"
INDEX 00 53:00:51
INDEX 01 53:10:57

TRACK 157 AUDIO
TITLE "2020.02.06-06:52.39:571273"
INDEX 00 53:28:72
INDEX 01 53:39:18

TRACK 158 AUDIO
TITLE "2020.02.06-06:52.51:751159"
INDEX 00 53:51:21
INDEX 01 53:51:31

TRACK 159 AUDIO
TITLE "2020.02.06-06:53.42:471337"
INDEX 00 53:57:55
INDEX 01 54:42:10

TRACK 160 AUDIO
TITLE "2020.02.06-06:53.49:751077"
INDEX 00 54:47:51
INDEX 01 54:49:31

TRACK 161 AUDIO
TITLE "2020.02.06-06:53.54:512903"
INDEX 00 54:53:70
INDEX 01 54:54:14

TRACK 162 AUDIO
TITLE "2020.02.06-06:54.16:951235"
INDEX 00 54:57:18
INDEX 01 55:16:46

TRACK 163 AUDIO
TITLE "2020.02.06-06:54.23:871259"
INDEX 00 55:23:22
INDEX 01 55:23:40

TRACK 164 AUDIO
TITLE "2020.02.06-06:54.49:171231"
INDEX 00 55:29:21
INDEX 01 55:48:63

TRACK 165 AUDIO
TITLE "2020.02.06-06:55.53:291179"
INDEX 00 56:00:30
INDEX 01 56:52:72

TRACK 166 AUDIO
TITLE "2020.02.06-06:55.59:333207"
INDEX 00 56:58:55
INDEX 01 56:59:00

TRACK 167 AUDIO
TITLE "2020.02.06-06:56.05:951200"
INDEX 00 57:04:63
INDEX 01 57:05:46

TRACK 168 AUDIO
TITLE "2020.02.06-06:56.12:031255"
INDEX 00 57:11:15
INDEX 01 57:11:52

TRACK 169 AUDIO
TITLE "2020.02.06-06:56.19:134267"
INDEX 00 57:15:24
INDEX 01 57:18:60

TRACK 170 AUDIO
TITLE "2020.02.06-06:56.34:951143"
INDEX 00 57:32:23
INDEX 01 57:34:46

TRACK 171 AUDIO
TITLE "2020.02.06-06:56.41:651265"
INDEX 00 57:40:70
INDEX 01 57:41:24

TRACK 172 AUDIO
TITLE "2020.02.06-06:56.51:391162"
INDEX 00 57:46:15
INDEX 01 57:51:04

TRACK 173 AUDIO
TITLE "2020.02.06-06:56.58:831185"
INDEX 00 57:53:27
INDEX 01 57:58:37

TRACK 174 AUDIO
TITLE "2020.02.06-06:57.56:651272"
INDEX 00 58:00:45
INDEX 01 58:56:24

TRACK 175 AUDIO
TITLE "2020.02.06-07:01.13:671110"
INDEX 00 59:05:57
INDEX 01 62:13:25

